<?xml version="1.0" encoding="utf-8" standalone="no"?>
<!DOCTYPE svg PUBLIC "-//W3C//DTD SVG 1.1//EN"
  "http://www.w3.org/Graphics/SVG/1.1/DTD/svg11.dtd">
<!-- Created with matplotlib (https://matplotlib.org/) -->
<svg height="341.953095pt" version="1.1" viewBox="0 0 506.071562 341.953095" width="506.071562pt" xmlns="http://www.w3.org/2000/svg" xmlns:xlink="http://www.w3.org/1999/xlink">
 <defs>
  <style type="text/css">
*{stroke-linecap:butt;stroke-linejoin:round;}
  </style>
 </defs>
 <g id="figure_1">
  <g id="patch_1">
   <path d="M 0 341.953095 
L 506.071562 341.953095 
L 506.071562 0 
L 0 0 
z
" style="fill:#ffffff;"/>
  </g>
  <g id="axes_1">
   <g id="patch_2">
    <path d="M 49.190625 304.396845 
L 406.310625 304.396845 
L 406.310625 38.284845 
L 49.190625 38.284845 
z
" style="fill:#dcdcdc;"/>
   </g>
   <g id="matplotlib.axis_1">
    <g id="xtick_1">
     <g id="line2d_1">
      <defs>
       <path d="M 0 0 
L 0 3.5 
" id="m24bd75fd87" style="stroke:#000000;stroke-width:0.8;"/>
      </defs>
      <g>
       <use style="stroke:#000000;stroke-width:0.8;" x="65.423352" xlink:href="#m24bd75fd87" y="304.396845"/>
      </g>
     </g>
     <g id="text_1">
      <!-- 100 -->
      <defs>
       <path d="M 12.40625 8.296875 
L 28.515625 8.296875 
L 28.515625 63.921875 
L 10.984375 60.40625 
L 10.984375 69.390625 
L 28.421875 72.90625 
L 38.28125 72.90625 
L 38.28125 8.296875 
L 54.390625 8.296875 
L 54.390625 0 
L 12.40625 0 
z
" id="DejaVuSans-49"/>
       <path d="M 31.78125 66.40625 
Q 24.171875 66.40625 20.328125 58.90625 
Q 16.5 51.421875 16.5 36.375 
Q 16.5 21.390625 20.328125 13.890625 
Q 24.171875 6.390625 31.78125 6.390625 
Q 39.453125 6.390625 43.28125 13.890625 
Q 47.125 21.390625 47.125 36.375 
Q 47.125 51.421875 43.28125 58.90625 
Q 39.453125 66.40625 31.78125 66.40625 
z
M 31.78125 74.21875 
Q 44.046875 74.21875 50.515625 64.515625 
Q 56.984375 54.828125 56.984375 36.375 
Q 56.984375 17.96875 50.515625 8.265625 
Q 44.046875 -1.421875 31.78125 -1.421875 
Q 19.53125 -1.421875 13.0625 8.265625 
Q 6.59375 17.96875 6.59375 36.375 
Q 6.59375 54.828125 13.0625 64.515625 
Q 19.53125 74.21875 31.78125 74.21875 
z
" id="DejaVuSans-48"/>
      </defs>
      <g transform="translate(55.879602 318.995282)scale(0.1 -0.1)">
       <use xlink:href="#DejaVuSans-49"/>
       <use x="63.623047" xlink:href="#DejaVuSans-48"/>
       <use x="127.246094" xlink:href="#DejaVuSans-48"/>
      </g>
     </g>
    </g>
    <g id="xtick_2">
     <g id="line2d_2">
      <g>
       <use style="stroke:#000000;stroke-width:0.8;" x="111.802573" xlink:href="#m24bd75fd87" y="304.396845"/>
      </g>
     </g>
     <g id="text_2">
      <!-- 300 -->
      <defs>
       <path d="M 40.578125 39.3125 
Q 47.65625 37.796875 51.625 33 
Q 55.609375 28.21875 55.609375 21.1875 
Q 55.609375 10.40625 48.1875 4.484375 
Q 40.765625 -1.421875 27.09375 -1.421875 
Q 22.515625 -1.421875 17.65625 -0.515625 
Q 12.796875 0.390625 7.625 2.203125 
L 7.625 11.71875 
Q 11.71875 9.328125 16.59375 8.109375 
Q 21.484375 6.890625 26.8125 6.890625 
Q 36.078125 6.890625 40.9375 10.546875 
Q 45.796875 14.203125 45.796875 21.1875 
Q 45.796875 27.640625 41.28125 31.265625 
Q 36.765625 34.90625 28.71875 34.90625 
L 20.21875 34.90625 
L 20.21875 43.015625 
L 29.109375 43.015625 
Q 36.375 43.015625 40.234375 45.921875 
Q 44.09375 48.828125 44.09375 54.296875 
Q 44.09375 59.90625 40.109375 62.90625 
Q 36.140625 65.921875 28.71875 65.921875 
Q 24.65625 65.921875 20.015625 65.03125 
Q 15.375 64.15625 9.8125 62.3125 
L 9.8125 71.09375 
Q 15.4375 72.65625 20.34375 73.4375 
Q 25.25 74.21875 29.59375 74.21875 
Q 40.828125 74.21875 47.359375 69.109375 
Q 53.90625 64.015625 53.90625 55.328125 
Q 53.90625 49.265625 50.4375 45.09375 
Q 46.96875 40.921875 40.578125 39.3125 
z
" id="DejaVuSans-51"/>
      </defs>
      <g transform="translate(102.258823 318.995282)scale(0.1 -0.1)">
       <use xlink:href="#DejaVuSans-51"/>
       <use x="63.623047" xlink:href="#DejaVuSans-48"/>
       <use x="127.246094" xlink:href="#DejaVuSans-48"/>
      </g>
     </g>
    </g>
    <g id="xtick_3">
     <g id="line2d_3">
      <g>
       <use style="stroke:#000000;stroke-width:0.8;" x="158.181794" xlink:href="#m24bd75fd87" y="304.396845"/>
      </g>
     </g>
     <g id="text_3">
      <!-- 500 -->
      <defs>
       <path d="M 10.796875 72.90625 
L 49.515625 72.90625 
L 49.515625 64.59375 
L 19.828125 64.59375 
L 19.828125 46.734375 
Q 21.96875 47.46875 24.109375 47.828125 
Q 26.265625 48.1875 28.421875 48.1875 
Q 40.625 48.1875 47.75 41.5 
Q 54.890625 34.8125 54.890625 23.390625 
Q 54.890625 11.625 47.5625 5.09375 
Q 40.234375 -1.421875 26.90625 -1.421875 
Q 22.3125 -1.421875 17.546875 -0.640625 
Q 12.796875 0.140625 7.71875 1.703125 
L 7.71875 11.625 
Q 12.109375 9.234375 16.796875 8.0625 
Q 21.484375 6.890625 26.703125 6.890625 
Q 35.15625 6.890625 40.078125 11.328125 
Q 45.015625 15.765625 45.015625 23.390625 
Q 45.015625 31 40.078125 35.4375 
Q 35.15625 39.890625 26.703125 39.890625 
Q 22.75 39.890625 18.8125 39.015625 
Q 14.890625 38.140625 10.796875 36.28125 
z
" id="DejaVuSans-53"/>
      </defs>
      <g transform="translate(148.638044 318.995282)scale(0.1 -0.1)">
       <use xlink:href="#DejaVuSans-53"/>
       <use x="63.623047" xlink:href="#DejaVuSans-48"/>
       <use x="127.246094" xlink:href="#DejaVuSans-48"/>
      </g>
     </g>
    </g>
    <g id="xtick_4">
     <g id="line2d_4">
      <g>
       <use style="stroke:#000000;stroke-width:0.8;" x="204.561015" xlink:href="#m24bd75fd87" y="304.396845"/>
      </g>
     </g>
     <g id="text_4">
      <!-- 700 -->
      <defs>
       <path d="M 8.203125 72.90625 
L 55.078125 72.90625 
L 55.078125 68.703125 
L 28.609375 0 
L 18.3125 0 
L 43.21875 64.59375 
L 8.203125 64.59375 
z
" id="DejaVuSans-55"/>
      </defs>
      <g transform="translate(195.017265 318.995282)scale(0.1 -0.1)">
       <use xlink:href="#DejaVuSans-55"/>
       <use x="63.623047" xlink:href="#DejaVuSans-48"/>
       <use x="127.246094" xlink:href="#DejaVuSans-48"/>
      </g>
     </g>
    </g>
    <g id="xtick_5">
     <g id="line2d_5">
      <g>
       <use style="stroke:#000000;stroke-width:0.8;" x="250.940235" xlink:href="#m24bd75fd87" y="304.396845"/>
      </g>
     </g>
     <g id="text_5">
      <!-- 900 -->
      <defs>
       <path d="M 10.984375 1.515625 
L 10.984375 10.5 
Q 14.703125 8.734375 18.5 7.8125 
Q 22.3125 6.890625 25.984375 6.890625 
Q 35.75 6.890625 40.890625 13.453125 
Q 46.046875 20.015625 46.78125 33.40625 
Q 43.953125 29.203125 39.59375 26.953125 
Q 35.25 24.703125 29.984375 24.703125 
Q 19.046875 24.703125 12.671875 31.3125 
Q 6.296875 37.9375 6.296875 49.421875 
Q 6.296875 60.640625 12.9375 67.421875 
Q 19.578125 74.21875 30.609375 74.21875 
Q 43.265625 74.21875 49.921875 64.515625 
Q 56.59375 54.828125 56.59375 36.375 
Q 56.59375 19.140625 48.40625 8.859375 
Q 40.234375 -1.421875 26.421875 -1.421875 
Q 22.703125 -1.421875 18.890625 -0.6875 
Q 15.09375 0.046875 10.984375 1.515625 
z
M 30.609375 32.421875 
Q 37.25 32.421875 41.125 36.953125 
Q 45.015625 41.5 45.015625 49.421875 
Q 45.015625 57.28125 41.125 61.84375 
Q 37.25 66.40625 30.609375 66.40625 
Q 23.96875 66.40625 20.09375 61.84375 
Q 16.21875 57.28125 16.21875 49.421875 
Q 16.21875 41.5 20.09375 36.953125 
Q 23.96875 32.421875 30.609375 32.421875 
z
" id="DejaVuSans-57"/>
      </defs>
      <g transform="translate(241.396485 318.995282)scale(0.1 -0.1)">
       <use xlink:href="#DejaVuSans-57"/>
       <use x="63.623047" xlink:href="#DejaVuSans-48"/>
       <use x="127.246094" xlink:href="#DejaVuSans-48"/>
      </g>
     </g>
    </g>
    <g id="xtick_6">
     <g id="line2d_6">
      <g>
       <use style="stroke:#000000;stroke-width:0.8;" x="297.319456" xlink:href="#m24bd75fd87" y="304.396845"/>
      </g>
     </g>
     <g id="text_6">
      <!-- 1100 -->
      <g transform="translate(284.594456 318.995282)scale(0.1 -0.1)">
       <use xlink:href="#DejaVuSans-49"/>
       <use x="63.623047" xlink:href="#DejaVuSans-49"/>
       <use x="127.246094" xlink:href="#DejaVuSans-48"/>
       <use x="190.869141" xlink:href="#DejaVuSans-48"/>
      </g>
     </g>
    </g>
    <g id="xtick_7">
     <g id="line2d_7">
      <g>
       <use style="stroke:#000000;stroke-width:0.8;" x="343.698677" xlink:href="#m24bd75fd87" y="304.396845"/>
      </g>
     </g>
     <g id="text_7">
      <!-- 1300 -->
      <g transform="translate(330.973677 318.995282)scale(0.1 -0.1)">
       <use xlink:href="#DejaVuSans-49"/>
       <use x="63.623047" xlink:href="#DejaVuSans-51"/>
       <use x="127.246094" xlink:href="#DejaVuSans-48"/>
       <use x="190.869141" xlink:href="#DejaVuSans-48"/>
      </g>
     </g>
    </g>
    <g id="xtick_8">
     <g id="line2d_8">
      <g>
       <use style="stroke:#000000;stroke-width:0.8;" x="390.077898" xlink:href="#m24bd75fd87" y="304.396845"/>
      </g>
     </g>
     <g id="text_8">
      <!-- 1500 -->
      <g transform="translate(377.352898 318.995282)scale(0.1 -0.1)">
       <use xlink:href="#DejaVuSans-49"/>
       <use x="63.623047" xlink:href="#DejaVuSans-53"/>
       <use x="127.246094" xlink:href="#DejaVuSans-48"/>
       <use x="190.869141" xlink:href="#DejaVuSans-48"/>
      </g>
     </g>
    </g>
    <g id="text_9">
     <!-- # rows  -->
     <defs>
      <path d="M 51.125 44 
L 36.921875 44 
L 32.8125 27.6875 
L 47.125 27.6875 
z
M 43.796875 71.78125 
L 38.71875 51.515625 
L 52.984375 51.515625 
L 58.109375 71.78125 
L 65.921875 71.78125 
L 60.890625 51.515625 
L 76.125 51.515625 
L 76.125 44 
L 58.984375 44 
L 54.984375 27.6875 
L 70.515625 27.6875 
L 70.515625 20.21875 
L 53.078125 20.21875 
L 48 0 
L 40.1875 0 
L 45.21875 20.21875 
L 30.90625 20.21875 
L 25.875 0 
L 18.015625 0 
L 23.09375 20.21875 
L 7.71875 20.21875 
L 7.71875 27.6875 
L 24.90625 27.6875 
L 29 44 
L 13.28125 44 
L 13.28125 51.515625 
L 30.90625 51.515625 
L 35.890625 71.78125 
z
" id="DejaVuSans-35"/>
      <path id="DejaVuSans-32"/>
      <path d="M 41.109375 46.296875 
Q 39.59375 47.171875 37.8125 47.578125 
Q 36.03125 48 33.890625 48 
Q 26.265625 48 22.1875 43.046875 
Q 18.109375 38.09375 18.109375 28.8125 
L 18.109375 0 
L 9.078125 0 
L 9.078125 54.6875 
L 18.109375 54.6875 
L 18.109375 46.1875 
Q 20.953125 51.171875 25.484375 53.578125 
Q 30.03125 56 36.53125 56 
Q 37.453125 56 38.578125 55.875 
Q 39.703125 55.765625 41.0625 55.515625 
z
" id="DejaVuSans-114"/>
      <path d="M 30.609375 48.390625 
Q 23.390625 48.390625 19.1875 42.75 
Q 14.984375 37.109375 14.984375 27.296875 
Q 14.984375 17.484375 19.15625 11.84375 
Q 23.34375 6.203125 30.609375 6.203125 
Q 37.796875 6.203125 41.984375 11.859375 
Q 46.1875 17.53125 46.1875 27.296875 
Q 46.1875 37.015625 41.984375 42.703125 
Q 37.796875 48.390625 30.609375 48.390625 
z
M 30.609375 56 
Q 42.328125 56 49.015625 48.375 
Q 55.71875 40.765625 55.71875 27.296875 
Q 55.71875 13.875 49.015625 6.21875 
Q 42.328125 -1.421875 30.609375 -1.421875 
Q 18.84375 -1.421875 12.171875 6.21875 
Q 5.515625 13.875 5.515625 27.296875 
Q 5.515625 40.765625 12.171875 48.375 
Q 18.84375 56 30.609375 56 
z
" id="DejaVuSans-111"/>
      <path d="M 4.203125 54.6875 
L 13.1875 54.6875 
L 24.421875 12.015625 
L 35.59375 54.6875 
L 46.1875 54.6875 
L 57.421875 12.015625 
L 68.609375 54.6875 
L 77.59375 54.6875 
L 63.28125 0 
L 52.6875 0 
L 40.921875 44.828125 
L 29.109375 0 
L 18.5 0 
z
" id="DejaVuSans-119"/>
      <path d="M 44.28125 53.078125 
L 44.28125 44.578125 
Q 40.484375 46.53125 36.375 47.5 
Q 32.28125 48.484375 27.875 48.484375 
Q 21.1875 48.484375 17.84375 46.4375 
Q 14.5 44.390625 14.5 40.28125 
Q 14.5 37.15625 16.890625 35.375 
Q 19.28125 33.59375 26.515625 31.984375 
L 29.59375 31.296875 
Q 39.15625 29.25 43.1875 25.515625 
Q 47.21875 21.78125 47.21875 15.09375 
Q 47.21875 7.46875 41.1875 3.015625 
Q 35.15625 -1.421875 24.609375 -1.421875 
Q 20.21875 -1.421875 15.453125 -0.5625 
Q 10.6875 0.296875 5.421875 2 
L 5.421875 11.28125 
Q 10.40625 8.6875 15.234375 7.390625 
Q 20.0625 6.109375 24.8125 6.109375 
Q 31.15625 6.109375 34.5625 8.28125 
Q 37.984375 10.453125 37.984375 14.40625 
Q 37.984375 18.0625 35.515625 20.015625 
Q 33.0625 21.96875 24.703125 23.78125 
L 21.578125 24.515625 
Q 13.234375 26.265625 9.515625 29.90625 
Q 5.8125 33.546875 5.8125 39.890625 
Q 5.8125 47.609375 11.28125 51.796875 
Q 16.75 56 26.8125 56 
Q 31.78125 56 36.171875 55.265625 
Q 40.578125 54.546875 44.28125 53.078125 
z
" id="DejaVuSans-115"/>
     </defs>
     <g transform="translate(208.575625 332.673407)scale(0.1 -0.1)">
      <use xlink:href="#DejaVuSans-35"/>
      <use x="83.789062" xlink:href="#DejaVuSans-32"/>
      <use x="115.576172" xlink:href="#DejaVuSans-114"/>
      <use x="156.658203" xlink:href="#DejaVuSans-111"/>
      <use x="217.839844" xlink:href="#DejaVuSans-119"/>
      <use x="299.626953" xlink:href="#DejaVuSans-115"/>
      <use x="351.726562" xlink:href="#DejaVuSans-32"/>
     </g>
    </g>
   </g>
   <g id="matplotlib.axis_2">
    <g id="ytick_1">
     <g id="line2d_9">
      <path clip-path="url(#p5910a5692f)" d="M 49.190625 298.926576 
L 406.310625 298.926576 
" style="fill:none;stroke:#ffffff;stroke-linecap:square;"/>
     </g>
     <g id="line2d_10">
      <defs>
       <path d="M 0 0 
L -3.5 0 
" id="m0111b3c2dc" style="stroke:#000000;stroke-width:0.8;"/>
      </defs>
      <g>
       <use style="stroke:#000000;stroke-width:0.8;" x="49.190625" xlink:href="#m0111b3c2dc" y="298.926576"/>
      </g>
     </g>
     <g id="text_10">
      <!-- 0.0000 -->
      <defs>
       <path d="M 10.6875 12.40625 
L 21 12.40625 
L 21 0 
L 10.6875 0 
z
" id="DejaVuSans-46"/>
      </defs>
      <g transform="translate(7.2 302.725795)scale(0.1 -0.1)">
       <use xlink:href="#DejaVuSans-48"/>
       <use x="63.623047" xlink:href="#DejaVuSans-46"/>
       <use x="95.410156" xlink:href="#DejaVuSans-48"/>
       <use x="159.033203" xlink:href="#DejaVuSans-48"/>
       <use x="222.65625" xlink:href="#DejaVuSans-48"/>
       <use x="286.279297" xlink:href="#DejaVuSans-48"/>
      </g>
     </g>
    </g>
    <g id="ytick_2">
     <g id="line2d_11">
      <path clip-path="url(#p5910a5692f)" d="M 49.190625 266.605935 
L 406.310625 266.605935 
" style="fill:none;stroke:#ffffff;stroke-linecap:square;"/>
     </g>
     <g id="line2d_12">
      <g>
       <use style="stroke:#000000;stroke-width:0.8;" x="49.190625" xlink:href="#m0111b3c2dc" y="266.605935"/>
      </g>
     </g>
     <g id="text_11">
      <!-- 0.0002 -->
      <defs>
       <path d="M 19.1875 8.296875 
L 53.609375 8.296875 
L 53.609375 0 
L 7.328125 0 
L 7.328125 8.296875 
Q 12.9375 14.109375 22.625 23.890625 
Q 32.328125 33.6875 34.8125 36.53125 
Q 39.546875 41.84375 41.421875 45.53125 
Q 43.3125 49.21875 43.3125 52.78125 
Q 43.3125 58.59375 39.234375 62.25 
Q 35.15625 65.921875 28.609375 65.921875 
Q 23.96875 65.921875 18.8125 64.3125 
Q 13.671875 62.703125 7.8125 59.421875 
L 7.8125 69.390625 
Q 13.765625 71.78125 18.9375 73 
Q 24.125 74.21875 28.421875 74.21875 
Q 39.75 74.21875 46.484375 68.546875 
Q 53.21875 62.890625 53.21875 53.421875 
Q 53.21875 48.921875 51.53125 44.890625 
Q 49.859375 40.875 45.40625 35.40625 
Q 44.1875 33.984375 37.640625 27.21875 
Q 31.109375 20.453125 19.1875 8.296875 
z
" id="DejaVuSans-50"/>
      </defs>
      <g transform="translate(7.2 270.405154)scale(0.1 -0.1)">
       <use xlink:href="#DejaVuSans-48"/>
       <use x="63.623047" xlink:href="#DejaVuSans-46"/>
       <use x="95.410156" xlink:href="#DejaVuSans-48"/>
       <use x="159.033203" xlink:href="#DejaVuSans-48"/>
       <use x="222.65625" xlink:href="#DejaVuSans-48"/>
       <use x="286.279297" xlink:href="#DejaVuSans-50"/>
      </g>
     </g>
    </g>
    <g id="ytick_3">
     <g id="line2d_13">
      <path clip-path="url(#p5910a5692f)" d="M 49.190625 234.285294 
L 406.310625 234.285294 
" style="fill:none;stroke:#ffffff;stroke-linecap:square;"/>
     </g>
     <g id="line2d_14">
      <g>
       <use style="stroke:#000000;stroke-width:0.8;" x="49.190625" xlink:href="#m0111b3c2dc" y="234.285294"/>
      </g>
     </g>
     <g id="text_12">
      <!-- 0.0004 -->
      <defs>
       <path d="M 37.796875 64.3125 
L 12.890625 25.390625 
L 37.796875 25.390625 
z
M 35.203125 72.90625 
L 47.609375 72.90625 
L 47.609375 25.390625 
L 58.015625 25.390625 
L 58.015625 17.1875 
L 47.609375 17.1875 
L 47.609375 0 
L 37.796875 0 
L 37.796875 17.1875 
L 4.890625 17.1875 
L 4.890625 26.703125 
z
" id="DejaVuSans-52"/>
      </defs>
      <g transform="translate(7.2 238.084513)scale(0.1 -0.1)">
       <use xlink:href="#DejaVuSans-48"/>
       <use x="63.623047" xlink:href="#DejaVuSans-46"/>
       <use x="95.410156" xlink:href="#DejaVuSans-48"/>
       <use x="159.033203" xlink:href="#DejaVuSans-48"/>
       <use x="222.65625" xlink:href="#DejaVuSans-48"/>
       <use x="286.279297" xlink:href="#DejaVuSans-52"/>
      </g>
     </g>
    </g>
    <g id="ytick_4">
     <g id="line2d_15">
      <path clip-path="url(#p5910a5692f)" d="M 49.190625 201.964653 
L 406.310625 201.964653 
" style="fill:none;stroke:#ffffff;stroke-linecap:square;"/>
     </g>
     <g id="line2d_16">
      <g>
       <use style="stroke:#000000;stroke-width:0.8;" x="49.190625" xlink:href="#m0111b3c2dc" y="201.964653"/>
      </g>
     </g>
     <g id="text_13">
      <!-- 0.0006 -->
      <defs>
       <path d="M 33.015625 40.375 
Q 26.375 40.375 22.484375 35.828125 
Q 18.609375 31.296875 18.609375 23.390625 
Q 18.609375 15.53125 22.484375 10.953125 
Q 26.375 6.390625 33.015625 6.390625 
Q 39.65625 6.390625 43.53125 10.953125 
Q 47.40625 15.53125 47.40625 23.390625 
Q 47.40625 31.296875 43.53125 35.828125 
Q 39.65625 40.375 33.015625 40.375 
z
M 52.59375 71.296875 
L 52.59375 62.3125 
Q 48.875 64.0625 45.09375 64.984375 
Q 41.3125 65.921875 37.59375 65.921875 
Q 27.828125 65.921875 22.671875 59.328125 
Q 17.53125 52.734375 16.796875 39.40625 
Q 19.671875 43.65625 24.015625 45.921875 
Q 28.375 48.1875 33.59375 48.1875 
Q 44.578125 48.1875 50.953125 41.515625 
Q 57.328125 34.859375 57.328125 23.390625 
Q 57.328125 12.15625 50.6875 5.359375 
Q 44.046875 -1.421875 33.015625 -1.421875 
Q 20.359375 -1.421875 13.671875 8.265625 
Q 6.984375 17.96875 6.984375 36.375 
Q 6.984375 53.65625 15.1875 63.9375 
Q 23.390625 74.21875 37.203125 74.21875 
Q 40.921875 74.21875 44.703125 73.484375 
Q 48.484375 72.75 52.59375 71.296875 
z
" id="DejaVuSans-54"/>
      </defs>
      <g transform="translate(7.2 205.763871)scale(0.1 -0.1)">
       <use xlink:href="#DejaVuSans-48"/>
       <use x="63.623047" xlink:href="#DejaVuSans-46"/>
       <use x="95.410156" xlink:href="#DejaVuSans-48"/>
       <use x="159.033203" xlink:href="#DejaVuSans-48"/>
       <use x="222.65625" xlink:href="#DejaVuSans-48"/>
       <use x="286.279297" xlink:href="#DejaVuSans-54"/>
      </g>
     </g>
    </g>
    <g id="ytick_5">
     <g id="line2d_17">
      <path clip-path="url(#p5910a5692f)" d="M 49.190625 169.644011 
L 406.310625 169.644011 
" style="fill:none;stroke:#ffffff;stroke-linecap:square;"/>
     </g>
     <g id="line2d_18">
      <g>
       <use style="stroke:#000000;stroke-width:0.8;" x="49.190625" xlink:href="#m0111b3c2dc" y="169.644011"/>
      </g>
     </g>
     <g id="text_14">
      <!-- 0.0008 -->
      <defs>
       <path d="M 31.78125 34.625 
Q 24.75 34.625 20.71875 30.859375 
Q 16.703125 27.09375 16.703125 20.515625 
Q 16.703125 13.921875 20.71875 10.15625 
Q 24.75 6.390625 31.78125 6.390625 
Q 38.8125 6.390625 42.859375 10.171875 
Q 46.921875 13.96875 46.921875 20.515625 
Q 46.921875 27.09375 42.890625 30.859375 
Q 38.875 34.625 31.78125 34.625 
z
M 21.921875 38.8125 
Q 15.578125 40.375 12.03125 44.71875 
Q 8.5 49.078125 8.5 55.328125 
Q 8.5 64.0625 14.71875 69.140625 
Q 20.953125 74.21875 31.78125 74.21875 
Q 42.671875 74.21875 48.875 69.140625 
Q 55.078125 64.0625 55.078125 55.328125 
Q 55.078125 49.078125 51.53125 44.71875 
Q 48 40.375 41.703125 38.8125 
Q 48.828125 37.15625 52.796875 32.3125 
Q 56.78125 27.484375 56.78125 20.515625 
Q 56.78125 9.90625 50.3125 4.234375 
Q 43.84375 -1.421875 31.78125 -1.421875 
Q 19.734375 -1.421875 13.25 4.234375 
Q 6.78125 9.90625 6.78125 20.515625 
Q 6.78125 27.484375 10.78125 32.3125 
Q 14.796875 37.15625 21.921875 38.8125 
z
M 18.3125 54.390625 
Q 18.3125 48.734375 21.84375 45.5625 
Q 25.390625 42.390625 31.78125 42.390625 
Q 38.140625 42.390625 41.71875 45.5625 
Q 45.3125 48.734375 45.3125 54.390625 
Q 45.3125 60.0625 41.71875 63.234375 
Q 38.140625 66.40625 31.78125 66.40625 
Q 25.390625 66.40625 21.84375 63.234375 
Q 18.3125 60.0625 18.3125 54.390625 
z
" id="DejaVuSans-56"/>
      </defs>
      <g transform="translate(7.2 173.44323)scale(0.1 -0.1)">
       <use xlink:href="#DejaVuSans-48"/>
       <use x="63.623047" xlink:href="#DejaVuSans-46"/>
       <use x="95.410156" xlink:href="#DejaVuSans-48"/>
       <use x="159.033203" xlink:href="#DejaVuSans-48"/>
       <use x="222.65625" xlink:href="#DejaVuSans-48"/>
       <use x="286.279297" xlink:href="#DejaVuSans-56"/>
      </g>
     </g>
    </g>
    <g id="ytick_6">
     <g id="line2d_19">
      <path clip-path="url(#p5910a5692f)" d="M 49.190625 137.32337 
L 406.310625 137.32337 
" style="fill:none;stroke:#ffffff;stroke-linecap:square;"/>
     </g>
     <g id="line2d_20">
      <g>
       <use style="stroke:#000000;stroke-width:0.8;" x="49.190625" xlink:href="#m0111b3c2dc" y="137.32337"/>
      </g>
     </g>
     <g id="text_15">
      <!-- 0.0010 -->
      <g transform="translate(7.2 141.122589)scale(0.1 -0.1)">
       <use xlink:href="#DejaVuSans-48"/>
       <use x="63.623047" xlink:href="#DejaVuSans-46"/>
       <use x="95.410156" xlink:href="#DejaVuSans-48"/>
       <use x="159.033203" xlink:href="#DejaVuSans-48"/>
       <use x="222.65625" xlink:href="#DejaVuSans-49"/>
       <use x="286.279297" xlink:href="#DejaVuSans-48"/>
      </g>
     </g>
    </g>
    <g id="ytick_7">
     <g id="line2d_21">
      <path clip-path="url(#p5910a5692f)" d="M 49.190625 105.002729 
L 406.310625 105.002729 
" style="fill:none;stroke:#ffffff;stroke-linecap:square;"/>
     </g>
     <g id="line2d_22">
      <g>
       <use style="stroke:#000000;stroke-width:0.8;" x="49.190625" xlink:href="#m0111b3c2dc" y="105.002729"/>
      </g>
     </g>
     <g id="text_16">
      <!-- 0.0012 -->
      <g transform="translate(7.2 108.801948)scale(0.1 -0.1)">
       <use xlink:href="#DejaVuSans-48"/>
       <use x="63.623047" xlink:href="#DejaVuSans-46"/>
       <use x="95.410156" xlink:href="#DejaVuSans-48"/>
       <use x="159.033203" xlink:href="#DejaVuSans-48"/>
       <use x="222.65625" xlink:href="#DejaVuSans-49"/>
       <use x="286.279297" xlink:href="#DejaVuSans-50"/>
      </g>
     </g>
    </g>
    <g id="ytick_8">
     <g id="line2d_23">
      <path clip-path="url(#p5910a5692f)" d="M 49.190625 72.682087 
L 406.310625 72.682087 
" style="fill:none;stroke:#ffffff;stroke-linecap:square;"/>
     </g>
     <g id="line2d_24">
      <g>
       <use style="stroke:#000000;stroke-width:0.8;" x="49.190625" xlink:href="#m0111b3c2dc" y="72.682087"/>
      </g>
     </g>
     <g id="text_17">
      <!-- 0.0014 -->
      <g transform="translate(7.2 76.481306)scale(0.1 -0.1)">
       <use xlink:href="#DejaVuSans-48"/>
       <use x="63.623047" xlink:href="#DejaVuSans-46"/>
       <use x="95.410156" xlink:href="#DejaVuSans-48"/>
       <use x="159.033203" xlink:href="#DejaVuSans-48"/>
       <use x="222.65625" xlink:href="#DejaVuSans-49"/>
       <use x="286.279297" xlink:href="#DejaVuSans-52"/>
      </g>
     </g>
    </g>
    <g id="ytick_9">
     <g id="line2d_25">
      <path clip-path="url(#p5910a5692f)" d="M 49.190625 40.361446 
L 406.310625 40.361446 
" style="fill:none;stroke:#ffffff;stroke-linecap:square;"/>
     </g>
     <g id="line2d_26">
      <g>
       <use style="stroke:#000000;stroke-width:0.8;" x="49.190625" xlink:href="#m0111b3c2dc" y="40.361446"/>
      </g>
     </g>
     <g id="text_18">
      <!-- 0.0016 -->
      <g transform="translate(7.2 44.160665)scale(0.1 -0.1)">
       <use xlink:href="#DejaVuSans-48"/>
       <use x="63.623047" xlink:href="#DejaVuSans-46"/>
       <use x="95.410156" xlink:href="#DejaVuSans-48"/>
       <use x="159.033203" xlink:href="#DejaVuSans-48"/>
       <use x="222.65625" xlink:href="#DejaVuSans-49"/>
       <use x="286.279297" xlink:href="#DejaVuSans-54"/>
      </g>
     </g>
    </g>
    <g id="text_19">
     <!-- seconds -->
     <defs>
      <path d="M 56.203125 29.59375 
L 56.203125 25.203125 
L 14.890625 25.203125 
Q 15.484375 15.921875 20.484375 11.0625 
Q 25.484375 6.203125 34.421875 6.203125 
Q 39.59375 6.203125 44.453125 7.46875 
Q 49.3125 8.734375 54.109375 11.28125 
L 54.109375 2.78125 
Q 49.265625 0.734375 44.1875 -0.34375 
Q 39.109375 -1.421875 33.890625 -1.421875 
Q 20.796875 -1.421875 13.15625 6.1875 
Q 5.515625 13.8125 5.515625 26.8125 
Q 5.515625 40.234375 12.765625 48.109375 
Q 20.015625 56 32.328125 56 
Q 43.359375 56 49.78125 48.890625 
Q 56.203125 41.796875 56.203125 29.59375 
z
M 47.21875 32.234375 
Q 47.125 39.59375 43.09375 43.984375 
Q 39.0625 48.390625 32.421875 48.390625 
Q 24.90625 48.390625 20.390625 44.140625 
Q 15.875 39.890625 15.1875 32.171875 
z
" id="DejaVuSans-101"/>
      <path d="M 48.78125 52.59375 
L 48.78125 44.1875 
Q 44.96875 46.296875 41.140625 47.34375 
Q 37.3125 48.390625 33.40625 48.390625 
Q 24.65625 48.390625 19.8125 42.84375 
Q 14.984375 37.3125 14.984375 27.296875 
Q 14.984375 17.28125 19.8125 11.734375 
Q 24.65625 6.203125 33.40625 6.203125 
Q 37.3125 6.203125 41.140625 7.25 
Q 44.96875 8.296875 48.78125 10.40625 
L 48.78125 2.09375 
Q 45.015625 0.34375 40.984375 -0.53125 
Q 36.96875 -1.421875 32.421875 -1.421875 
Q 20.0625 -1.421875 12.78125 6.34375 
Q 5.515625 14.109375 5.515625 27.296875 
Q 5.515625 40.671875 12.859375 48.328125 
Q 20.21875 56 33.015625 56 
Q 37.15625 56 41.109375 55.140625 
Q 45.0625 54.296875 48.78125 52.59375 
z
" id="DejaVuSans-99"/>
      <path d="M 54.890625 33.015625 
L 54.890625 0 
L 45.90625 0 
L 45.90625 32.71875 
Q 45.90625 40.484375 42.875 44.328125 
Q 39.84375 48.1875 33.796875 48.1875 
Q 26.515625 48.1875 22.3125 43.546875 
Q 18.109375 38.921875 18.109375 30.90625 
L 18.109375 0 
L 9.078125 0 
L 9.078125 54.6875 
L 18.109375 54.6875 
L 18.109375 46.1875 
Q 21.34375 51.125 25.703125 53.5625 
Q 30.078125 56 35.796875 56 
Q 45.21875 56 50.046875 50.171875 
Q 54.890625 44.34375 54.890625 33.015625 
z
" id="DejaVuSans-110"/>
      <path d="M 45.40625 46.390625 
L 45.40625 75.984375 
L 54.390625 75.984375 
L 54.390625 0 
L 45.40625 0 
L 45.40625 8.203125 
Q 42.578125 3.328125 38.25 0.953125 
Q 33.9375 -1.421875 27.875 -1.421875 
Q 17.96875 -1.421875 11.734375 6.484375 
Q 5.515625 14.40625 5.515625 27.296875 
Q 5.515625 40.1875 11.734375 48.09375 
Q 17.96875 56 27.875 56 
Q 33.9375 56 38.25 53.625 
Q 42.578125 51.265625 45.40625 46.390625 
z
M 14.796875 27.296875 
Q 14.796875 17.390625 18.875 11.75 
Q 22.953125 6.109375 30.078125 6.109375 
Q 37.203125 6.109375 41.296875 11.75 
Q 45.40625 17.390625 45.40625 27.296875 
Q 45.40625 37.203125 41.296875 42.84375 
Q 37.203125 48.484375 30.078125 48.484375 
Q 22.953125 48.484375 18.875 42.84375 
Q 14.796875 37.203125 14.796875 27.296875 
z
" id="DejaVuSans-100"/>
     </defs>
     <g transform="translate(46.575942 31.239918)rotate(-1)scale(0.1 -0.1)">
      <use xlink:href="#DejaVuSans-115"/>
      <use x="52.099609" xlink:href="#DejaVuSans-101"/>
      <use x="113.623047" xlink:href="#DejaVuSans-99"/>
      <use x="168.603516" xlink:href="#DejaVuSans-111"/>
      <use x="229.785156" xlink:href="#DejaVuSans-110"/>
      <use x="293.164062" xlink:href="#DejaVuSans-100"/>
      <use x="356.640625" xlink:href="#DejaVuSans-115"/>
     </g>
    </g>
   </g>
   <g id="line2d_27">
    <path clip-path="url(#p5910a5692f)" d="M 65.423352 281.311827 
L 88.612963 264.8283 
L 111.802573 247.536757 
L 134.992183 230.56842 
L 158.181794 214.4081 
L 181.371404 197.439763 
L 204.561015 180.956236 
L 227.750625 165.119122 
L 250.940235 148.635594 
L 274.129846 131.344051 
L 297.319456 114.860524 
L 320.509067 99.831426 
L 343.698677 82.701486 
L 366.888287 65.73315 
L 390.077898 50.380845 
" style="fill:none;stroke:#00008b;stroke-linecap:square;stroke-width:1.5;"/>
    <defs>
     <path d="M 0 3 
C 0.795609 3 1.55874 2.683901 2.12132 2.12132 
C 2.683901 1.55874 3 0.795609 3 0 
C 3 -0.795609 2.683901 -1.55874 2.12132 -2.12132 
C 1.55874 -2.683901 0.795609 -3 0 -3 
C -0.795609 -3 -1.55874 -2.683901 -2.12132 -2.12132 
C -2.683901 -1.55874 -3 -0.795609 -3 0 
C -3 0.795609 -2.683901 1.55874 -2.12132 2.12132 
C -1.55874 2.683901 -0.795609 3 0 3 
z
" id="m09760b7ee0" style="stroke:#00008b;"/>
    </defs>
    <g clip-path="url(#p5910a5692f)">
     <use style="fill:#00008b;stroke:#00008b;" x="65.423352" xlink:href="#m09760b7ee0" y="281.311827"/>
     <use style="fill:#00008b;stroke:#00008b;" x="88.612963" xlink:href="#m09760b7ee0" y="264.8283"/>
     <use style="fill:#00008b;stroke:#00008b;" x="111.802573" xlink:href="#m09760b7ee0" y="247.536757"/>
     <use style="fill:#00008b;stroke:#00008b;" x="134.992183" xlink:href="#m09760b7ee0" y="230.56842"/>
     <use style="fill:#00008b;stroke:#00008b;" x="158.181794" xlink:href="#m09760b7ee0" y="214.4081"/>
     <use style="fill:#00008b;stroke:#00008b;" x="181.371404" xlink:href="#m09760b7ee0" y="197.439763"/>
     <use style="fill:#00008b;stroke:#00008b;" x="204.561015" xlink:href="#m09760b7ee0" y="180.956236"/>
     <use style="fill:#00008b;stroke:#00008b;" x="227.750625" xlink:href="#m09760b7ee0" y="165.119122"/>
     <use style="fill:#00008b;stroke:#00008b;" x="250.940235" xlink:href="#m09760b7ee0" y="148.635594"/>
     <use style="fill:#00008b;stroke:#00008b;" x="274.129846" xlink:href="#m09760b7ee0" y="131.344051"/>
     <use style="fill:#00008b;stroke:#00008b;" x="297.319456" xlink:href="#m09760b7ee0" y="114.860524"/>
     <use style="fill:#00008b;stroke:#00008b;" x="320.509067" xlink:href="#m09760b7ee0" y="99.831426"/>
     <use style="fill:#00008b;stroke:#00008b;" x="343.698677" xlink:href="#m09760b7ee0" y="82.701486"/>
     <use style="fill:#00008b;stroke:#00008b;" x="366.888287" xlink:href="#m09760b7ee0" y="65.73315"/>
     <use style="fill:#00008b;stroke:#00008b;" x="390.077898" xlink:href="#m09760b7ee0" y="50.380845"/>
    </g>
   </g>
   <g id="line2d_28">
    <path clip-path="url(#p5910a5692f)" d="M 65.423352 284.059081 
L 88.612963 270.161206 
L 111.802573 255.616917 
L 134.992183 241.557438 
L 158.181794 227.821166 
L 181.371404 214.084893 
L 204.561015 199.863811 
L 227.750625 186.773951 
L 250.940235 173.199282 
L 274.129846 159.301406 
L 297.319456 145.40353 
L 320.509067 130.536035 
L 343.698677 116.799763 
L 366.888287 103.709903 
L 390.077898 89.004011 
" style="fill:none;stroke:#800020;stroke-linecap:square;stroke-width:1.5;"/>
    <defs>
     <path d="M 0 3 
C 0.795609 3 1.55874 2.683901 2.12132 2.12132 
C 2.683901 1.55874 3 0.795609 3 0 
C 3 -0.795609 2.683901 -1.55874 2.12132 -2.12132 
C 1.55874 -2.683901 0.795609 -3 0 -3 
C -0.795609 -3 -1.55874 -2.683901 -2.12132 -2.12132 
C -2.683901 -1.55874 -3 -0.795609 -3 0 
C -3 0.795609 -2.683901 1.55874 -2.12132 2.12132 
C -1.55874 2.683901 -0.795609 3 0 3 
z
" id="m75d27a5996" style="stroke:#800020;"/>
    </defs>
    <g clip-path="url(#p5910a5692f)">
     <use style="fill:#800020;stroke:#800020;" x="65.423352" xlink:href="#m75d27a5996" y="284.059081"/>
     <use style="fill:#800020;stroke:#800020;" x="88.612963" xlink:href="#m75d27a5996" y="270.161206"/>
     <use style="fill:#800020;stroke:#800020;" x="111.802573" xlink:href="#m75d27a5996" y="255.616917"/>
     <use style="fill:#800020;stroke:#800020;" x="134.992183" xlink:href="#m75d27a5996" y="241.557438"/>
     <use style="fill:#800020;stroke:#800020;" x="158.181794" xlink:href="#m75d27a5996" y="227.821166"/>
     <use style="fill:#800020;stroke:#800020;" x="181.371404" xlink:href="#m75d27a5996" y="214.084893"/>
     <use style="fill:#800020;stroke:#800020;" x="204.561015" xlink:href="#m75d27a5996" y="199.863811"/>
     <use style="fill:#800020;stroke:#800020;" x="227.750625" xlink:href="#m75d27a5996" y="186.773951"/>
     <use style="fill:#800020;stroke:#800020;" x="250.940235" xlink:href="#m75d27a5996" y="173.199282"/>
     <use style="fill:#800020;stroke:#800020;" x="274.129846" xlink:href="#m75d27a5996" y="159.301406"/>
     <use style="fill:#800020;stroke:#800020;" x="297.319456" xlink:href="#m75d27a5996" y="145.40353"/>
     <use style="fill:#800020;stroke:#800020;" x="320.509067" xlink:href="#m75d27a5996" y="130.536035"/>
     <use style="fill:#800020;stroke:#800020;" x="343.698677" xlink:href="#m75d27a5996" y="116.799763"/>
     <use style="fill:#800020;stroke:#800020;" x="366.888287" xlink:href="#m75d27a5996" y="103.709903"/>
     <use style="fill:#800020;stroke:#800020;" x="390.077898" xlink:href="#m75d27a5996" y="89.004011"/>
    </g>
   </g>
   <g id="line2d_29">
    <path clip-path="url(#p5910a5692f)" d="M 65.423352 286.967939 
L 88.612963 275.494112 
L 111.802573 264.181887 
L 134.992183 251.415234 
L 158.181794 241.395835 
L 181.371404 229.922007 
L 204.561015 218.771386 
L 227.750625 206.974352 
L 250.940235 196.30854 
L 274.129846 184.996316 
L 297.319456 174.007298 
L 320.509067 161.725454 
L 343.698677 151.544452 
L 366.888287 139.262609 
L 390.077898 126.819162 
" style="fill:none;stroke:#006269;stroke-linecap:square;stroke-width:1.5;"/>
    <defs>
     <path d="M 0 3 
C 0.795609 3 1.55874 2.683901 2.12132 2.12132 
C 2.683901 1.55874 3 0.795609 3 0 
C 3 -0.795609 2.683901 -1.55874 2.12132 -2.12132 
C 1.55874 -2.683901 0.795609 -3 0 -3 
C -0.795609 -3 -1.55874 -2.683901 -2.12132 -2.12132 
C -2.683901 -1.55874 -3 -0.795609 -3 0 
C -3 0.795609 -2.683901 1.55874 -2.12132 2.12132 
C -1.55874 2.683901 -0.795609 3 0 3 
z
" id="mec5f286cd3" style="stroke:#006269;"/>
    </defs>
    <g clip-path="url(#p5910a5692f)">
     <use style="fill:#006269;stroke:#006269;" x="65.423352" xlink:href="#mec5f286cd3" y="286.967939"/>
     <use style="fill:#006269;stroke:#006269;" x="88.612963" xlink:href="#mec5f286cd3" y="275.494112"/>
     <use style="fill:#006269;stroke:#006269;" x="111.802573" xlink:href="#mec5f286cd3" y="264.181887"/>
     <use style="fill:#006269;stroke:#006269;" x="134.992183" xlink:href="#mec5f286cd3" y="251.415234"/>
     <use style="fill:#006269;stroke:#006269;" x="158.181794" xlink:href="#mec5f286cd3" y="241.395835"/>
     <use style="fill:#006269;stroke:#006269;" x="181.371404" xlink:href="#mec5f286cd3" y="229.922007"/>
     <use style="fill:#006269;stroke:#006269;" x="204.561015" xlink:href="#mec5f286cd3" y="218.771386"/>
     <use style="fill:#006269;stroke:#006269;" x="227.750625" xlink:href="#mec5f286cd3" y="206.974352"/>
     <use style="fill:#006269;stroke:#006269;" x="250.940235" xlink:href="#mec5f286cd3" y="196.30854"/>
     <use style="fill:#006269;stroke:#006269;" x="274.129846" xlink:href="#mec5f286cd3" y="184.996316"/>
     <use style="fill:#006269;stroke:#006269;" x="297.319456" xlink:href="#mec5f286cd3" y="174.007298"/>
     <use style="fill:#006269;stroke:#006269;" x="320.509067" xlink:href="#mec5f286cd3" y="161.725454"/>
     <use style="fill:#006269;stroke:#006269;" x="343.698677" xlink:href="#mec5f286cd3" y="151.544452"/>
     <use style="fill:#006269;stroke:#006269;" x="366.888287" xlink:href="#mec5f286cd3" y="139.262609"/>
     <use style="fill:#006269;stroke:#006269;" x="390.077898" xlink:href="#mec5f286cd3" y="126.819162"/>
    </g>
   </g>
   <g id="line2d_30">
    <path clip-path="url(#p5910a5692f)" d="M 65.423352 289.55359 
L 88.612963 280.665414 
L 111.802573 271.130825 
L 134.992183 262.404252 
L 158.181794 253.516075 
L 181.371404 245.112709 
L 204.561015 235.57812 
L 227.750625 227.336356 
L 250.940235 218.124973 
L 274.129846 209.236797 
L 297.319456 196.30854 
L 320.509067 191.945254 
L 343.698677 182.733871 
L 366.888287 174.976917 
L 390.077898 165.119122 
" style="fill:none;stroke:#800080;stroke-linecap:square;stroke-width:1.5;"/>
    <defs>
     <path d="M 0 3 
C 0.795609 3 1.55874 2.683901 2.12132 2.12132 
C 2.683901 1.55874 3 0.795609 3 0 
C 3 -0.795609 2.683901 -1.55874 2.12132 -2.12132 
C 1.55874 -2.683901 0.795609 -3 0 -3 
C -0.795609 -3 -1.55874 -2.683901 -2.12132 -2.12132 
C -2.683901 -1.55874 -3 -0.795609 -3 0 
C -3 0.795609 -2.683901 1.55874 -2.12132 2.12132 
C -1.55874 2.683901 -0.795609 3 0 3 
z
" id="me7c44cbe85" style="stroke:#800080;"/>
    </defs>
    <g clip-path="url(#p5910a5692f)">
     <use style="fill:#800080;stroke:#800080;" x="65.423352" xlink:href="#me7c44cbe85" y="289.55359"/>
     <use style="fill:#800080;stroke:#800080;" x="88.612963" xlink:href="#me7c44cbe85" y="280.665414"/>
     <use style="fill:#800080;stroke:#800080;" x="111.802573" xlink:href="#me7c44cbe85" y="271.130825"/>
     <use style="fill:#800080;stroke:#800080;" x="134.992183" xlink:href="#me7c44cbe85" y="262.404252"/>
     <use style="fill:#800080;stroke:#800080;" x="158.181794" xlink:href="#me7c44cbe85" y="253.516075"/>
     <use style="fill:#800080;stroke:#800080;" x="181.371404" xlink:href="#me7c44cbe85" y="245.112709"/>
     <use style="fill:#800080;stroke:#800080;" x="204.561015" xlink:href="#me7c44cbe85" y="235.57812"/>
     <use style="fill:#800080;stroke:#800080;" x="227.750625" xlink:href="#me7c44cbe85" y="227.336356"/>
     <use style="fill:#800080;stroke:#800080;" x="250.940235" xlink:href="#me7c44cbe85" y="218.124973"/>
     <use style="fill:#800080;stroke:#800080;" x="274.129846" xlink:href="#me7c44cbe85" y="209.236797"/>
     <use style="fill:#800080;stroke:#800080;" x="297.319456" xlink:href="#me7c44cbe85" y="196.30854"/>
     <use style="fill:#800080;stroke:#800080;" x="320.509067" xlink:href="#me7c44cbe85" y="191.945254"/>
     <use style="fill:#800080;stroke:#800080;" x="343.698677" xlink:href="#me7c44cbe85" y="182.733871"/>
     <use style="fill:#800080;stroke:#800080;" x="366.888287" xlink:href="#me7c44cbe85" y="174.976917"/>
     <use style="fill:#800080;stroke:#800080;" x="390.077898" xlink:href="#me7c44cbe85" y="165.119122"/>
    </g>
   </g>
   <g id="line2d_31">
    <path clip-path="url(#p5910a5692f)" d="M 65.423352 292.300845 
L 88.612963 285.675114 
L 111.802573 279.049382 
L 134.992183 272.423651 
L 158.181794 266.121126 
L 181.371404 259.656997 
L 204.561015 253.031266 
L 227.750625 246.728741 
L 250.940235 240.587819 
L 274.129846 233.638881 
L 297.319456 227.821166 
L 320.509067 220.872228 
L 343.698677 215.054512 
L 366.888287 208.590384 
L 390.077898 200.995033 
" style="fill:none;stroke:#ff8c00;stroke-linecap:square;stroke-width:1.5;"/>
    <defs>
     <path d="M 0 3 
C 0.795609 3 1.55874 2.683901 2.12132 2.12132 
C 2.683901 1.55874 3 0.795609 3 0 
C 3 -0.795609 2.683901 -1.55874 2.12132 -2.12132 
C 1.55874 -2.683901 0.795609 -3 0 -3 
C -0.795609 -3 -1.55874 -2.683901 -2.12132 -2.12132 
C -2.683901 -1.55874 -3 -0.795609 -3 0 
C -3 0.795609 -2.683901 1.55874 -2.12132 2.12132 
C -1.55874 2.683901 -0.795609 3 0 3 
z
" id="m95e907f94c" style="stroke:#ff8c00;"/>
    </defs>
    <g clip-path="url(#p5910a5692f)">
     <use style="fill:#ff8c00;stroke:#ff8c00;" x="65.423352" xlink:href="#m95e907f94c" y="292.300845"/>
     <use style="fill:#ff8c00;stroke:#ff8c00;" x="88.612963" xlink:href="#m95e907f94c" y="285.675114"/>
     <use style="fill:#ff8c00;stroke:#ff8c00;" x="111.802573" xlink:href="#m95e907f94c" y="279.049382"/>
     <use style="fill:#ff8c00;stroke:#ff8c00;" x="134.992183" xlink:href="#m95e907f94c" y="272.423651"/>
     <use style="fill:#ff8c00;stroke:#ff8c00;" x="158.181794" xlink:href="#m95e907f94c" y="266.121126"/>
     <use style="fill:#ff8c00;stroke:#ff8c00;" x="181.371404" xlink:href="#m95e907f94c" y="259.656997"/>
     <use style="fill:#ff8c00;stroke:#ff8c00;" x="204.561015" xlink:href="#m95e907f94c" y="253.031266"/>
     <use style="fill:#ff8c00;stroke:#ff8c00;" x="227.750625" xlink:href="#m95e907f94c" y="246.728741"/>
     <use style="fill:#ff8c00;stroke:#ff8c00;" x="250.940235" xlink:href="#m95e907f94c" y="240.587819"/>
     <use style="fill:#ff8c00;stroke:#ff8c00;" x="274.129846" xlink:href="#m95e907f94c" y="233.638881"/>
     <use style="fill:#ff8c00;stroke:#ff8c00;" x="297.319456" xlink:href="#m95e907f94c" y="227.821166"/>
     <use style="fill:#ff8c00;stroke:#ff8c00;" x="320.509067" xlink:href="#m95e907f94c" y="220.872228"/>
     <use style="fill:#ff8c00;stroke:#ff8c00;" x="343.698677" xlink:href="#m95e907f94c" y="215.054512"/>
     <use style="fill:#ff8c00;stroke:#ff8c00;" x="366.888287" xlink:href="#m95e907f94c" y="208.590384"/>
     <use style="fill:#ff8c00;stroke:#ff8c00;" x="390.077898" xlink:href="#m95e907f94c" y="200.995033"/>
    </g>
   </g>
   <g id="patch_3">
    <path d="M 49.190625 304.396845 
L 49.190625 38.284845 
" style="fill:none;stroke:#000000;stroke-linecap:square;stroke-linejoin:miter;stroke-width:0.8;"/>
   </g>
   <g id="patch_4">
    <path d="M 406.310625 304.396845 
L 406.310625 38.284845 
" style="fill:none;stroke:#000000;stroke-linecap:square;stroke-linejoin:miter;stroke-width:0.8;"/>
   </g>
   <g id="patch_5">
    <path d="M 49.190625 304.396845 
L 406.310625 304.396845 
" style="fill:none;stroke:#000000;stroke-linecap:square;stroke-linejoin:miter;stroke-width:0.8;"/>
   </g>
   <g id="patch_6">
    <path d="M 49.190625 38.284845 
L 406.310625 38.284845 
" style="fill:none;stroke:#000000;stroke-linecap:square;stroke-linejoin:miter;stroke-width:0.8;"/>
   </g>
   <g id="text_20">
    <!-- Algorithm 2 -->
    <defs>
     <path d="M 53.421875 13.28125 
L 24.03125 13.28125 
L 19.390625 0 
L 0.484375 0 
L 27.484375 72.90625 
L 49.90625 72.90625 
L 76.90625 0 
L 58.015625 0 
z
M 28.71875 26.8125 
L 48.6875 26.8125 
L 38.71875 55.8125 
z
" id="DejaVuSans-Bold-65"/>
     <path d="M 8.40625 75.984375 
L 25.875 75.984375 
L 25.875 0 
L 8.40625 0 
z
" id="DejaVuSans-Bold-108"/>
     <path d="M 45.609375 9.28125 
Q 42 4.5 37.640625 2.25 
Q 33.296875 0 27.59375 0 
Q 17.578125 0 11.03125 7.875 
Q 4.5 15.765625 4.5 27.984375 
Q 4.5 40.234375 11.03125 48.0625 
Q 17.578125 55.90625 27.59375 55.90625 
Q 33.296875 55.90625 37.640625 53.65625 
Q 42 51.421875 45.609375 46.578125 
L 45.609375 54.6875 
L 63.1875 54.6875 
L 63.1875 5.515625 
Q 63.1875 -7.671875 54.859375 -14.625 
Q 46.53125 -21.578125 30.71875 -21.578125 
Q 25.59375 -21.578125 20.796875 -20.796875 
Q 16.015625 -20.015625 11.1875 -18.40625 
L 11.1875 -4.78125 
Q 15.765625 -7.421875 20.15625 -8.71875 
Q 24.5625 -10.015625 29 -10.015625 
Q 37.59375 -10.015625 41.59375 -6.25 
Q 45.609375 -2.484375 45.609375 5.515625 
z
M 34.078125 43.3125 
Q 28.65625 43.3125 25.625 39.296875 
Q 22.609375 35.296875 22.609375 27.984375 
Q 22.609375 20.453125 25.53125 16.578125 
Q 28.46875 12.703125 34.078125 12.703125 
Q 39.546875 12.703125 42.578125 16.703125 
Q 45.609375 20.703125 45.609375 27.984375 
Q 45.609375 35.296875 42.578125 39.296875 
Q 39.546875 43.3125 34.078125 43.3125 
z
" id="DejaVuSans-Bold-103"/>
     <path d="M 34.421875 43.5 
Q 28.609375 43.5 25.5625 39.328125 
Q 22.515625 35.15625 22.515625 27.296875 
Q 22.515625 19.4375 25.5625 15.25 
Q 28.609375 11.078125 34.421875 11.078125 
Q 40.140625 11.078125 43.15625 15.25 
Q 46.1875 19.4375 46.1875 27.296875 
Q 46.1875 35.15625 43.15625 39.328125 
Q 40.140625 43.5 34.421875 43.5 
z
M 34.421875 56 
Q 48.53125 56 56.46875 48.375 
Q 64.40625 40.765625 64.40625 27.296875 
Q 64.40625 13.8125 56.46875 6.1875 
Q 48.53125 -1.421875 34.421875 -1.421875 
Q 20.265625 -1.421875 12.28125 6.1875 
Q 4.296875 13.8125 4.296875 27.296875 
Q 4.296875 40.765625 12.28125 48.375 
Q 20.265625 56 34.421875 56 
z
" id="DejaVuSans-Bold-111"/>
     <path d="M 49.03125 39.796875 
Q 46.734375 40.875 44.453125 41.375 
Q 42.1875 41.890625 39.890625 41.890625 
Q 33.15625 41.890625 29.515625 37.5625 
Q 25.875 33.25 25.875 25.203125 
L 25.875 0 
L 8.40625 0 
L 8.40625 54.6875 
L 25.875 54.6875 
L 25.875 45.703125 
Q 29.25 51.078125 33.609375 53.53125 
Q 37.984375 56 44.09375 56 
Q 44.96875 56 45.984375 55.921875 
Q 47.015625 55.859375 48.96875 55.609375 
z
" id="DejaVuSans-Bold-114"/>
     <path d="M 8.40625 54.6875 
L 25.875 54.6875 
L 25.875 0 
L 8.40625 0 
z
M 8.40625 75.984375 
L 25.875 75.984375 
L 25.875 61.71875 
L 8.40625 61.71875 
z
" id="DejaVuSans-Bold-105"/>
     <path d="M 27.484375 70.21875 
L 27.484375 54.6875 
L 45.515625 54.6875 
L 45.515625 42.1875 
L 27.484375 42.1875 
L 27.484375 19 
Q 27.484375 15.1875 29 13.84375 
Q 30.515625 12.5 35.015625 12.5 
L 44 12.5 
L 44 0 
L 29 0 
Q 18.65625 0 14.328125 4.3125 
Q 10.015625 8.640625 10.015625 19 
L 10.015625 42.1875 
L 1.3125 42.1875 
L 1.3125 54.6875 
L 10.015625 54.6875 
L 10.015625 70.21875 
z
" id="DejaVuSans-Bold-116"/>
     <path d="M 63.375 33.296875 
L 63.375 0 
L 45.796875 0 
L 45.796875 5.421875 
L 45.796875 25.390625 
Q 45.796875 32.5625 45.484375 35.25 
Q 45.171875 37.9375 44.390625 39.203125 
Q 43.359375 40.921875 41.59375 41.875 
Q 39.84375 42.828125 37.59375 42.828125 
Q 32.125 42.828125 29 38.59375 
Q 25.875 34.375 25.875 26.90625 
L 25.875 0 
L 8.40625 0 
L 8.40625 75.984375 
L 25.875 75.984375 
L 25.875 46.6875 
Q 29.828125 51.46875 34.265625 53.734375 
Q 38.71875 56 44.09375 56 
Q 53.5625 56 58.46875 50.1875 
Q 63.375 44.390625 63.375 33.296875 
z
" id="DejaVuSans-Bold-104"/>
     <path d="M 59.078125 45.609375 
Q 62.40625 50.6875 66.96875 53.34375 
Q 71.53125 56 77 56 
Q 86.421875 56 91.359375 50.1875 
Q 96.296875 44.390625 96.296875 33.296875 
L 96.296875 0 
L 78.71875 0 
L 78.71875 28.515625 
Q 78.765625 29.15625 78.78125 29.828125 
Q 78.8125 30.515625 78.8125 31.78125 
Q 78.8125 37.59375 77.09375 40.203125 
Q 75.390625 42.828125 71.578125 42.828125 
Q 66.609375 42.828125 63.890625 38.71875 
Q 61.1875 34.625 61.078125 26.859375 
L 61.078125 0 
L 43.5 0 
L 43.5 28.515625 
Q 43.5 37.59375 41.9375 40.203125 
Q 40.375 42.828125 36.375 42.828125 
Q 31.34375 42.828125 28.609375 38.703125 
Q 25.875 34.578125 25.875 26.90625 
L 25.875 0 
L 8.296875 0 
L 8.296875 54.6875 
L 25.875 54.6875 
L 25.875 46.6875 
Q 29.109375 51.3125 33.28125 53.65625 
Q 37.453125 56 42.484375 56 
Q 48.140625 56 52.484375 53.265625 
Q 56.84375 50.53125 59.078125 45.609375 
z
" id="DejaVuSans-Bold-109"/>
     <path id="DejaVuSans-Bold-32"/>
     <path d="M 28.8125 13.8125 
L 60.890625 13.8125 
L 60.890625 0 
L 7.90625 0 
L 7.90625 13.8125 
L 34.515625 37.3125 
Q 38.09375 40.53125 39.796875 43.609375 
Q 41.5 46.6875 41.5 50 
Q 41.5 55.125 38.0625 58.25 
Q 34.625 61.375 28.90625 61.375 
Q 24.515625 61.375 19.28125 59.5 
Q 14.0625 57.625 8.109375 53.90625 
L 8.109375 69.921875 
Q 14.453125 72.015625 20.65625 73.109375 
Q 26.859375 74.21875 32.8125 74.21875 
Q 45.90625 74.21875 53.15625 68.453125 
Q 60.40625 62.703125 60.40625 52.390625 
Q 60.40625 46.4375 57.328125 41.28125 
Q 54.25 36.140625 44.390625 27.484375 
z
" id="DejaVuSans-Bold-50"/>
    </defs>
    <g transform="translate(187.963125 16.318125)scale(0.12 -0.12)">
     <use xlink:href="#DejaVuSans-Bold-65"/>
     <use x="77.392578" xlink:href="#DejaVuSans-Bold-108"/>
     <use x="111.669922" xlink:href="#DejaVuSans-Bold-103"/>
     <use x="183.251953" xlink:href="#DejaVuSans-Bold-111"/>
     <use x="251.953125" xlink:href="#DejaVuSans-Bold-114"/>
     <use x="301.269531" xlink:href="#DejaVuSans-Bold-105"/>
     <use x="335.546875" xlink:href="#DejaVuSans-Bold-116"/>
     <use x="383.349609" xlink:href="#DejaVuSans-Bold-104"/>
     <use x="454.541016" xlink:href="#DejaVuSans-Bold-109"/>
     <use x="558.740234" xlink:href="#DejaVuSans-Bold-32"/>
     <use x="593.554688" xlink:href="#DejaVuSans-Bold-50"/>
    </g>
   </g>
   <g id="legend_1">
    <g id="patch_7">
     <path d="M 413.310625 209.536157 
L 496.871562 209.536157 
Q 498.871562 209.536157 498.871562 207.536157 
L 498.871562 135.145532 
Q 498.871562 133.145532 496.871562 133.145532 
L 413.310625 133.145532 
Q 411.310625 133.145532 411.310625 135.145532 
L 411.310625 207.536157 
Q 411.310625 209.536157 413.310625 209.536157 
z
" style="fill:#ffffff;opacity:0.8;stroke:#cccccc;stroke-linejoin:miter;"/>
    </g>
    <g id="line2d_32">
     <path d="M 415.310625 141.24397 
L 435.310625 141.24397 
" style="fill:none;stroke:#00008b;stroke-linecap:square;stroke-width:1.5;"/>
    </g>
    <g id="line2d_33">
     <g>
      <use style="fill:#00008b;stroke:#00008b;" x="425.310625" xlink:href="#m09760b7ee0" y="141.24397"/>
     </g>
    </g>
    <g id="text_21">
     <!-- 6 columns -->
     <defs>
      <path d="M 9.421875 75.984375 
L 18.40625 75.984375 
L 18.40625 0 
L 9.421875 0 
z
" id="DejaVuSans-108"/>
      <path d="M 8.5 21.578125 
L 8.5 54.6875 
L 17.484375 54.6875 
L 17.484375 21.921875 
Q 17.484375 14.15625 20.5 10.265625 
Q 23.53125 6.390625 29.59375 6.390625 
Q 36.859375 6.390625 41.078125 11.03125 
Q 45.3125 15.671875 45.3125 23.6875 
L 45.3125 54.6875 
L 54.296875 54.6875 
L 54.296875 0 
L 45.3125 0 
L 45.3125 8.40625 
Q 42.046875 3.421875 37.71875 1 
Q 33.40625 -1.421875 27.6875 -1.421875 
Q 18.265625 -1.421875 13.375 4.4375 
Q 8.5 10.296875 8.5 21.578125 
z
M 31.109375 56 
z
" id="DejaVuSans-117"/>
      <path d="M 52 44.1875 
Q 55.375 50.25 60.0625 53.125 
Q 64.75 56 71.09375 56 
Q 79.640625 56 84.28125 50.015625 
Q 88.921875 44.046875 88.921875 33.015625 
L 88.921875 0 
L 79.890625 0 
L 79.890625 32.71875 
Q 79.890625 40.578125 77.09375 44.375 
Q 74.3125 48.1875 68.609375 48.1875 
Q 61.625 48.1875 57.5625 43.546875 
Q 53.515625 38.921875 53.515625 30.90625 
L 53.515625 0 
L 44.484375 0 
L 44.484375 32.71875 
Q 44.484375 40.625 41.703125 44.40625 
Q 38.921875 48.1875 33.109375 48.1875 
Q 26.21875 48.1875 22.15625 43.53125 
Q 18.109375 38.875 18.109375 30.90625 
L 18.109375 0 
L 9.078125 0 
L 9.078125 54.6875 
L 18.109375 54.6875 
L 18.109375 46.1875 
Q 21.1875 51.21875 25.484375 53.609375 
Q 29.78125 56 35.6875 56 
Q 41.65625 56 45.828125 52.96875 
Q 50 49.953125 52 44.1875 
z
" id="DejaVuSans-109"/>
     </defs>
     <g transform="translate(443.310625 144.74397)scale(0.1 -0.1)">
      <use xlink:href="#DejaVuSans-54"/>
      <use x="63.623047" xlink:href="#DejaVuSans-32"/>
      <use x="95.410156" xlink:href="#DejaVuSans-99"/>
      <use x="150.390625" xlink:href="#DejaVuSans-111"/>
      <use x="211.572266" xlink:href="#DejaVuSans-108"/>
      <use x="239.355469" xlink:href="#DejaVuSans-117"/>
      <use x="302.734375" xlink:href="#DejaVuSans-109"/>
      <use x="400.146484" xlink:href="#DejaVuSans-110"/>
      <use x="463.525391" xlink:href="#DejaVuSans-115"/>
     </g>
    </g>
    <g id="line2d_34">
     <path d="M 415.310625 155.922095 
L 435.310625 155.922095 
" style="fill:none;stroke:#800020;stroke-linecap:square;stroke-width:1.5;"/>
    </g>
    <g id="line2d_35">
     <g>
      <use style="fill:#800020;stroke:#800020;" x="425.310625" xlink:href="#m75d27a5996" y="155.922095"/>
     </g>
    </g>
    <g id="text_22">
     <!-- 5 columns -->
     <g transform="translate(443.310625 159.422095)scale(0.1 -0.1)">
      <use xlink:href="#DejaVuSans-53"/>
      <use x="63.623047" xlink:href="#DejaVuSans-32"/>
      <use x="95.410156" xlink:href="#DejaVuSans-99"/>
      <use x="150.390625" xlink:href="#DejaVuSans-111"/>
      <use x="211.572266" xlink:href="#DejaVuSans-108"/>
      <use x="239.355469" xlink:href="#DejaVuSans-117"/>
      <use x="302.734375" xlink:href="#DejaVuSans-109"/>
      <use x="400.146484" xlink:href="#DejaVuSans-110"/>
      <use x="463.525391" xlink:href="#DejaVuSans-115"/>
     </g>
    </g>
    <g id="line2d_36">
     <path d="M 415.310625 170.60022 
L 435.310625 170.60022 
" style="fill:none;stroke:#006269;stroke-linecap:square;stroke-width:1.5;"/>
    </g>
    <g id="line2d_37">
     <g>
      <use style="fill:#006269;stroke:#006269;" x="425.310625" xlink:href="#mec5f286cd3" y="170.60022"/>
     </g>
    </g>
    <g id="text_23">
     <!-- 4 columns -->
     <g transform="translate(443.310625 174.10022)scale(0.1 -0.1)">
      <use xlink:href="#DejaVuSans-52"/>
      <use x="63.623047" xlink:href="#DejaVuSans-32"/>
      <use x="95.410156" xlink:href="#DejaVuSans-99"/>
      <use x="150.390625" xlink:href="#DejaVuSans-111"/>
      <use x="211.572266" xlink:href="#DejaVuSans-108"/>
      <use x="239.355469" xlink:href="#DejaVuSans-117"/>
      <use x="302.734375" xlink:href="#DejaVuSans-109"/>
      <use x="400.146484" xlink:href="#DejaVuSans-110"/>
      <use x="463.525391" xlink:href="#DejaVuSans-115"/>
     </g>
    </g>
    <g id="line2d_38">
     <path d="M 415.310625 185.278345 
L 435.310625 185.278345 
" style="fill:none;stroke:#800080;stroke-linecap:square;stroke-width:1.5;"/>
    </g>
    <g id="line2d_39">
     <g>
      <use style="fill:#800080;stroke:#800080;" x="425.310625" xlink:href="#me7c44cbe85" y="185.278345"/>
     </g>
    </g>
    <g id="text_24">
     <!-- 3 columns -->
     <g transform="translate(443.310625 188.778345)scale(0.1 -0.1)">
      <use xlink:href="#DejaVuSans-51"/>
      <use x="63.623047" xlink:href="#DejaVuSans-32"/>
      <use x="95.410156" xlink:href="#DejaVuSans-99"/>
      <use x="150.390625" xlink:href="#DejaVuSans-111"/>
      <use x="211.572266" xlink:href="#DejaVuSans-108"/>
      <use x="239.355469" xlink:href="#DejaVuSans-117"/>
      <use x="302.734375" xlink:href="#DejaVuSans-109"/>
      <use x="400.146484" xlink:href="#DejaVuSans-110"/>
      <use x="463.525391" xlink:href="#DejaVuSans-115"/>
     </g>
    </g>
    <g id="line2d_40">
     <path d="M 415.310625 199.95647 
L 435.310625 199.95647 
" style="fill:none;stroke:#ff8c00;stroke-linecap:square;stroke-width:1.5;"/>
    </g>
    <g id="line2d_41">
     <g>
      <use style="fill:#ff8c00;stroke:#ff8c00;" x="425.310625" xlink:href="#m95e907f94c" y="199.95647"/>
     </g>
    </g>
    <g id="text_25">
     <!-- 2 columns -->
     <g transform="translate(443.310625 203.45647)scale(0.1 -0.1)">
      <use xlink:href="#DejaVuSans-50"/>
      <use x="63.623047" xlink:href="#DejaVuSans-32"/>
      <use x="95.410156" xlink:href="#DejaVuSans-99"/>
      <use x="150.390625" xlink:href="#DejaVuSans-111"/>
      <use x="211.572266" xlink:href="#DejaVuSans-108"/>
      <use x="239.355469" xlink:href="#DejaVuSans-117"/>
      <use x="302.734375" xlink:href="#DejaVuSans-109"/>
      <use x="400.146484" xlink:href="#DejaVuSans-110"/>
      <use x="463.525391" xlink:href="#DejaVuSans-115"/>
     </g>
    </g>
   </g>
  </g>
 </g>
 <defs>
  <clipPath id="p5910a5692f">
   <rect height="266.112" width="357.12" x="49.190625" y="38.284845"/>
  </clipPath>
 </defs>
</svg>
